<mxfile host="Electron" agent="Mozilla/5.0 (Windows NT 10.0; Win64; x64) AppleWebKit/537.36 (KHTML, like Gecko) draw.io/26.0.16 Chrome/132.0.6834.196 Electron/34.2.0 Safari/537.36" version="26.0.16" pages="3">
  <diagram id="62q7TKTgISb7DvsDjX5v" name="Intructions">
    <mxGraphModel dx="3340" dy="1350" grid="1" gridSize="10" guides="1" tooltips="1" connect="1" arrows="1" fold="1" page="1" pageScale="1" pageWidth="827" pageHeight="1169" math="0" shadow="0">
      <root>
        <mxCell id="0" />
        <mxCell id="1" parent="0" />
        <mxCell id="JFRP9lHMIx_rkyCkyTHQ-1" value="&lt;h1 style=&quot;margin-top: 0px;&quot;&gt;Exporting the image&lt;/h1&gt;&lt;p&gt;&lt;span style=&quot;font-size: 15px;&quot;&gt;Export the images by:&lt;/span&gt;&lt;/p&gt;&lt;p&gt;&lt;span style=&quot;font-size: 15px;&quot;&gt;File &amp;gt; Export as &amp;gt; Advanced&lt;/span&gt;&lt;/p&gt;&lt;p&gt;&lt;span style=&quot;font-size: 15px; background-color: transparent; color: light-dark(rgb(0, 0, 0), rgb(255, 255, 255));&quot;&gt;Set DPI to 400 dpi to ensure high resolution.&lt;/span&gt;&lt;/p&gt;&lt;p&gt;&lt;br&gt;&lt;/p&gt;" style="text;html=1;whiteSpace=wrap;overflow=hidden;rounded=0;" vertex="1" parent="1">
          <mxGeometry x="40" y="280" width="760" height="160" as="geometry" />
        </mxCell>
        <mxCell id="JFRP9lHMIx_rkyCkyTHQ-2" value="&lt;h1 style=&quot;margin-top: 0px;&quot;&gt;About&lt;/h1&gt;&lt;p&gt;&lt;span style=&quot;font-size: 15px;&quot;&gt;There are two sheets in this document that provide the tileable images for use in The Strategy Unit slideshows:&lt;/span&gt;&lt;/p&gt;&lt;p&gt;&lt;/p&gt;&lt;ul&gt;&lt;li&gt;&lt;span style=&quot;font-size: 15px;&quot;&gt;&lt;b&gt;orange-black&lt;/b&gt; provides a background of orange with charcoal dots&lt;/span&gt;&lt;/li&gt;&lt;li&gt;&lt;span style=&quot;font-size: 15px;&quot;&gt;&lt;b&gt;black-orange &lt;/b&gt;provides a charcoal background with orange dots&lt;/span&gt;&lt;/li&gt;&lt;/ul&gt;&lt;p&gt;&lt;/p&gt;&lt;p&gt;&lt;span style=&quot;font-size: 15px;&quot;&gt;&lt;br&gt;&lt;/span&gt;&lt;/p&gt;" style="text;html=1;whiteSpace=wrap;overflow=hidden;rounded=0;" vertex="1" parent="1">
          <mxGeometry x="40" y="120" width="760" height="140" as="geometry" />
        </mxCell>
        <mxCell id="JFRP9lHMIx_rkyCkyTHQ-3" value="&lt;font style=&quot;font-size: 30px;&quot;&gt;THE STRATEGY UNIT BRAND&lt;/font&gt;" style="text;html=1;align=center;verticalAlign=middle;whiteSpace=wrap;rounded=0;" vertex="1" parent="1">
          <mxGeometry x="40" y="40" width="760" height="50" as="geometry" />
        </mxCell>
        <mxCell id="JFRP9lHMIx_rkyCkyTHQ-4" value="&lt;h1 style=&quot;margin-top: 0px;&quot;&gt;Resizing the image&lt;/h1&gt;&lt;p&gt;&lt;span style=&quot;font-size: 15px; background-color: transparent; color: light-dark(rgb(0, 0, 0), rgb(255, 255, 255));&quot;&gt;This is important - the image is too large for use in the SU powerpoint template.&amp;nbsp;&lt;/span&gt;&lt;span style=&quot;background-color: transparent; color: light-dark(rgb(0, 0, 0), rgb(255, 255, 255)); font-size: 15px;&quot;&gt;This is because it was difficult to design at the right scale for use.&lt;/span&gt;&lt;/p&gt;&lt;p&gt;&lt;span style=&quot;background-color: transparent; color: light-dark(rgb(0, 0, 0), rgb(255, 255, 255)); font-size: 15px;&quot;&gt;Open the image in the &#39;Photos&#39; app, click the elipsis (currently on the left-hand side of the screen at the top)&lt;/span&gt;&lt;/p&gt;&lt;p&gt;&lt;span style=&quot;font-size: 15px;&quot;&gt;Resize image as a copy - scale to &lt;b&gt;41%&lt;/b&gt; of the current size.&lt;/span&gt;&lt;/p&gt;&lt;p&gt;&lt;span style=&quot;font-size: 15px;&quot;&gt;&lt;br&gt;&lt;/span&gt;&lt;/p&gt;&lt;p&gt;&lt;span style=&quot;font-size: 15px;&quot;&gt;This will give you an image of the correct resolution.&lt;/span&gt;&lt;/p&gt;" style="text;html=1;whiteSpace=wrap;overflow=hidden;rounded=0;" vertex="1" parent="1">
          <mxGeometry x="40" y="440" width="760" height="220" as="geometry" />
        </mxCell>
        <mxCell id="JFRP9lHMIx_rkyCkyTHQ-5" value="&lt;h1 style=&quot;margin-top: 0px;&quot;&gt;Use in PowerPoint&lt;/h1&gt;&lt;p&gt;&lt;span style=&quot;font-size: 15px;&quot;&gt;&lt;b&gt;Backgrounds:&lt;/b&gt;&lt;/span&gt;&lt;/p&gt;&lt;p&gt;&lt;span style=&quot;font-size: 15px;&quot;&gt;Slide Master &amp;gt; add a square shape to the slide&lt;/span&gt;&lt;/p&gt;&lt;p&gt;&lt;span style=&quot;font-size: 15px;&quot;&gt;Shape options &amp;gt; Picutre or texture fill&lt;/span&gt;&lt;/p&gt;&lt;p&gt;&lt;span style=&quot;font-size: 15px;&quot;&gt;Select the resized image.&lt;/span&gt;&lt;/p&gt;&lt;p&gt;&lt;span style=&quot;font-size: 15px;&quot;&gt;Choose &#39;Tile picture as texture&#39;&lt;/span&gt;&lt;/p&gt;&lt;p&gt;&lt;span style=&quot;font-size: 15px;&quot;&gt;Resize the square shape to fill the slide.&lt;/span&gt;&lt;/p&gt;&lt;p&gt;&lt;span style=&quot;font-size: 15px;&quot;&gt;&lt;br&gt;&lt;/span&gt;&lt;/p&gt;" style="text;html=1;whiteSpace=wrap;overflow=hidden;rounded=0;" vertex="1" parent="1">
          <mxGeometry x="40" y="680" width="760" height="220" as="geometry" />
        </mxCell>
      </root>
    </mxGraphModel>
  </diagram>
  <diagram id="zrAFzkLcMHAHnWcwPAXI" name="orange-black">
    <mxGraphModel dx="928" dy="375" grid="1" gridSize="10" guides="1" tooltips="1" connect="1" arrows="1" fold="1" page="1" pageScale="1" pageWidth="827" pageHeight="1169" background="#F9BF07" math="0" shadow="0">
      <root>
        <mxCell id="0" />
        <mxCell id="1" parent="0" />
        <mxCell id="JwXdgrWkdTJRPZww_8HU-1" value="" style="whiteSpace=wrap;html=1;aspect=fixed;fillColor=#F9BF07;strokeColor=#F9BF07;strokeWidth=0;" vertex="1" parent="1">
          <mxGeometry x="20" y="180" width="160" height="160" as="geometry" />
        </mxCell>
        <mxCell id="JwXdgrWkdTJRPZww_8HU-2" value="" style="ellipse;whiteSpace=wrap;html=1;aspect=fixed;strokeColor=none;fillColor=#2C2825;" vertex="1" parent="1">
          <mxGeometry x="40" y="200" width="2" height="2" as="geometry" />
        </mxCell>
        <mxCell id="JwXdgrWkdTJRPZww_8HU-3" value="" style="ellipse;whiteSpace=wrap;html=1;aspect=fixed;strokeColor=none;fillColor=#2C2825;" vertex="1" parent="1">
          <mxGeometry x="80" y="200" width="2" height="2" as="geometry" />
        </mxCell>
        <mxCell id="JwXdgrWkdTJRPZww_8HU-4" value="" style="ellipse;whiteSpace=wrap;html=1;aspect=fixed;strokeColor=none;fillColor=#2C2825;" vertex="1" parent="1">
          <mxGeometry x="120" y="200" width="2" height="2" as="geometry" />
        </mxCell>
        <mxCell id="JwXdgrWkdTJRPZww_8HU-5" value="" style="ellipse;whiteSpace=wrap;html=1;aspect=fixed;strokeColor=none;fillColor=#2C2825;" vertex="1" parent="1">
          <mxGeometry x="160" y="200" width="2" height="2" as="geometry" />
        </mxCell>
        <mxCell id="JwXdgrWkdTJRPZww_8HU-6" value="" style="ellipse;whiteSpace=wrap;html=1;aspect=fixed;strokeColor=none;fillColor=#2C2825;" vertex="1" parent="1">
          <mxGeometry x="40" y="240" width="2" height="2" as="geometry" />
        </mxCell>
        <mxCell id="JwXdgrWkdTJRPZww_8HU-7" value="" style="ellipse;whiteSpace=wrap;html=1;aspect=fixed;strokeColor=none;fillColor=#2C2825;" vertex="1" parent="1">
          <mxGeometry x="80" y="240" width="2" height="2" as="geometry" />
        </mxCell>
        <mxCell id="JwXdgrWkdTJRPZww_8HU-8" value="" style="ellipse;whiteSpace=wrap;html=1;aspect=fixed;strokeColor=none;fillColor=#2C2825;" vertex="1" parent="1">
          <mxGeometry x="120" y="240" width="2" height="2" as="geometry" />
        </mxCell>
        <mxCell id="JwXdgrWkdTJRPZww_8HU-9" value="" style="ellipse;whiteSpace=wrap;html=1;aspect=fixed;strokeColor=none;fillColor=#2C2825;" vertex="1" parent="1">
          <mxGeometry x="160" y="240" width="2" height="2" as="geometry" />
        </mxCell>
        <mxCell id="JwXdgrWkdTJRPZww_8HU-10" value="" style="ellipse;whiteSpace=wrap;html=1;aspect=fixed;strokeColor=none;fillColor=#2C2825;" vertex="1" parent="1">
          <mxGeometry x="40" y="280" width="2" height="2" as="geometry" />
        </mxCell>
        <mxCell id="JwXdgrWkdTJRPZww_8HU-11" value="" style="ellipse;whiteSpace=wrap;html=1;aspect=fixed;strokeColor=none;fillColor=#2C2825;" vertex="1" parent="1">
          <mxGeometry x="80" y="280" width="2" height="2" as="geometry" />
        </mxCell>
        <mxCell id="JwXdgrWkdTJRPZww_8HU-12" value="" style="ellipse;whiteSpace=wrap;html=1;aspect=fixed;strokeColor=none;fillColor=#2C2825;" vertex="1" parent="1">
          <mxGeometry x="120" y="280" width="2" height="2" as="geometry" />
        </mxCell>
        <mxCell id="JwXdgrWkdTJRPZww_8HU-13" value="" style="ellipse;whiteSpace=wrap;html=1;aspect=fixed;strokeColor=none;fillColor=#2C2825;" vertex="1" parent="1">
          <mxGeometry x="160" y="280" width="2" height="2" as="geometry" />
        </mxCell>
        <mxCell id="JwXdgrWkdTJRPZww_8HU-14" value="" style="ellipse;whiteSpace=wrap;html=1;aspect=fixed;strokeColor=none;fillColor=#2C2825;" vertex="1" parent="1">
          <mxGeometry x="80" y="320" width="2" height="2" as="geometry" />
        </mxCell>
        <mxCell id="JwXdgrWkdTJRPZww_8HU-15" value="" style="ellipse;whiteSpace=wrap;html=1;aspect=fixed;strokeColor=none;fillColor=#2C2825;" vertex="1" parent="1">
          <mxGeometry x="120" y="320" width="2" height="2" as="geometry" />
        </mxCell>
        <mxCell id="JwXdgrWkdTJRPZww_8HU-16" value="" style="ellipse;whiteSpace=wrap;html=1;aspect=fixed;strokeColor=none;fillColor=#2C2825;" vertex="1" parent="1">
          <mxGeometry x="160" y="320" width="2" height="2" as="geometry" />
        </mxCell>
        <mxCell id="JwXdgrWkdTJRPZww_8HU-17" value="" style="ellipse;whiteSpace=wrap;html=1;aspect=fixed;strokeColor=none;fillColor=#2C2825;" vertex="1" parent="1">
          <mxGeometry x="40" y="320" width="2" height="2" as="geometry" />
        </mxCell>
      </root>
    </mxGraphModel>
  </diagram>
  <diagram name="black-orange" id="aphsbkFE1PNcTETWL8BI">
    <mxGraphModel dx="928" dy="375" grid="1" gridSize="10" guides="1" tooltips="1" connect="1" arrows="1" fold="1" page="1" pageScale="1" pageWidth="827" pageHeight="1169" background="#2C2825" math="0" shadow="0">
      <root>
        <mxCell id="dov5jDHDXtSHMtrmy8q_-0" />
        <mxCell id="dov5jDHDXtSHMtrmy8q_-1" parent="dov5jDHDXtSHMtrmy8q_-0" />
        <mxCell id="dov5jDHDXtSHMtrmy8q_-2" value="" style="whiteSpace=wrap;html=1;aspect=fixed;fillColor=#2C2825;strokeColor=#2C2825;strokeWidth=0;" vertex="1" parent="dov5jDHDXtSHMtrmy8q_-1">
          <mxGeometry x="20" y="180" width="160" height="160" as="geometry" />
        </mxCell>
        <mxCell id="dov5jDHDXtSHMtrmy8q_-3" value="" style="ellipse;whiteSpace=wrap;html=1;aspect=fixed;strokeColor=none;fillColor=#F9BF07;" vertex="1" parent="dov5jDHDXtSHMtrmy8q_-1">
          <mxGeometry x="40" y="200" width="2" height="2" as="geometry" />
        </mxCell>
        <mxCell id="dov5jDHDXtSHMtrmy8q_-4" value="" style="ellipse;whiteSpace=wrap;html=1;aspect=fixed;strokeColor=none;fillColor=#F9BF07;" vertex="1" parent="dov5jDHDXtSHMtrmy8q_-1">
          <mxGeometry x="80" y="200" width="2" height="2" as="geometry" />
        </mxCell>
        <mxCell id="dov5jDHDXtSHMtrmy8q_-5" value="" style="ellipse;whiteSpace=wrap;html=1;aspect=fixed;strokeColor=none;fillColor=#F9BF07;" vertex="1" parent="dov5jDHDXtSHMtrmy8q_-1">
          <mxGeometry x="120" y="200" width="2" height="2" as="geometry" />
        </mxCell>
        <mxCell id="dov5jDHDXtSHMtrmy8q_-6" value="" style="ellipse;whiteSpace=wrap;html=1;aspect=fixed;strokeColor=none;fillColor=#F9BF07;" vertex="1" parent="dov5jDHDXtSHMtrmy8q_-1">
          <mxGeometry x="160" y="200" width="2" height="2" as="geometry" />
        </mxCell>
        <mxCell id="dov5jDHDXtSHMtrmy8q_-7" value="" style="ellipse;whiteSpace=wrap;html=1;aspect=fixed;strokeColor=none;fillColor=#F9BF07;" vertex="1" parent="dov5jDHDXtSHMtrmy8q_-1">
          <mxGeometry x="40" y="240" width="2" height="2" as="geometry" />
        </mxCell>
        <mxCell id="dov5jDHDXtSHMtrmy8q_-8" value="" style="ellipse;whiteSpace=wrap;html=1;aspect=fixed;strokeColor=none;fillColor=#F9BF07;" vertex="1" parent="dov5jDHDXtSHMtrmy8q_-1">
          <mxGeometry x="80" y="240" width="2" height="2" as="geometry" />
        </mxCell>
        <mxCell id="dov5jDHDXtSHMtrmy8q_-9" value="" style="ellipse;whiteSpace=wrap;html=1;aspect=fixed;strokeColor=none;fillColor=#F9BF07;" vertex="1" parent="dov5jDHDXtSHMtrmy8q_-1">
          <mxGeometry x="120" y="240" width="2" height="2" as="geometry" />
        </mxCell>
        <mxCell id="dov5jDHDXtSHMtrmy8q_-10" value="" style="ellipse;whiteSpace=wrap;html=1;aspect=fixed;strokeColor=none;fillColor=#F9BF07;" vertex="1" parent="dov5jDHDXtSHMtrmy8q_-1">
          <mxGeometry x="160" y="240" width="2" height="2" as="geometry" />
        </mxCell>
        <mxCell id="dov5jDHDXtSHMtrmy8q_-11" value="" style="ellipse;whiteSpace=wrap;html=1;aspect=fixed;strokeColor=none;fillColor=#F9BF07;" vertex="1" parent="dov5jDHDXtSHMtrmy8q_-1">
          <mxGeometry x="40" y="280" width="2" height="2" as="geometry" />
        </mxCell>
        <mxCell id="dov5jDHDXtSHMtrmy8q_-12" value="" style="ellipse;whiteSpace=wrap;html=1;aspect=fixed;strokeColor=none;fillColor=#F9BF07;" vertex="1" parent="dov5jDHDXtSHMtrmy8q_-1">
          <mxGeometry x="80" y="280" width="2" height="2" as="geometry" />
        </mxCell>
        <mxCell id="dov5jDHDXtSHMtrmy8q_-13" value="" style="ellipse;whiteSpace=wrap;html=1;aspect=fixed;strokeColor=none;fillColor=#F9BF07;" vertex="1" parent="dov5jDHDXtSHMtrmy8q_-1">
          <mxGeometry x="120" y="280" width="2" height="2" as="geometry" />
        </mxCell>
        <mxCell id="dov5jDHDXtSHMtrmy8q_-14" value="" style="ellipse;whiteSpace=wrap;html=1;aspect=fixed;strokeColor=none;fillColor=#F9BF07;" vertex="1" parent="dov5jDHDXtSHMtrmy8q_-1">
          <mxGeometry x="160" y="280" width="2" height="2" as="geometry" />
        </mxCell>
        <mxCell id="dov5jDHDXtSHMtrmy8q_-15" value="" style="ellipse;whiteSpace=wrap;html=1;aspect=fixed;strokeColor=none;fillColor=#F9BF07;" vertex="1" parent="dov5jDHDXtSHMtrmy8q_-1">
          <mxGeometry x="80" y="320" width="2" height="2" as="geometry" />
        </mxCell>
        <mxCell id="dov5jDHDXtSHMtrmy8q_-16" value="" style="ellipse;whiteSpace=wrap;html=1;aspect=fixed;strokeColor=none;fillColor=#F9BF07;" vertex="1" parent="dov5jDHDXtSHMtrmy8q_-1">
          <mxGeometry x="120" y="320" width="2" height="2" as="geometry" />
        </mxCell>
        <mxCell id="dov5jDHDXtSHMtrmy8q_-17" value="" style="ellipse;whiteSpace=wrap;html=1;aspect=fixed;strokeColor=none;fillColor=#F9BF07;" vertex="1" parent="dov5jDHDXtSHMtrmy8q_-1">
          <mxGeometry x="160" y="320" width="2" height="2" as="geometry" />
        </mxCell>
        <mxCell id="dov5jDHDXtSHMtrmy8q_-18" value="" style="ellipse;whiteSpace=wrap;html=1;aspect=fixed;strokeColor=none;fillColor=#F9BF07;" vertex="1" parent="dov5jDHDXtSHMtrmy8q_-1">
          <mxGeometry x="40" y="320" width="2" height="2" as="geometry" />
        </mxCell>
      </root>
    </mxGraphModel>
  </diagram>
</mxfile>
